<svg viewBox="0 0 617 220" fill="none" xmlns="http://www.w3.org/2000/svg">
  <g clip-path="url(#clip0_2_32)">
    <path
      d="M123.825 81.6152L84.3787 142.727C83.9604 143.375 83.3556 143.861 82.656 144.11C81.9563 144.358 81.2 144.357 80.5017 144.106C79.8035 143.855 79.2014 143.367 78.7869 142.718C78.3724 142.068 78.1681 141.291 78.2049 140.506L79.7836 106.766L54.2974 100.974C53.7527 100.851 53.2452 100.586 52.8198 100.203C52.3945 99.8197 52.0643 99.3305 51.8587 98.7786C51.653 98.2267 51.5782 97.6291 51.6409 97.0386C51.7035 96.4481 51.9017 95.883 52.2178 95.3933L91.6641 34.2812C92.0823 33.6329 92.6872 33.1476 93.3869 32.8988C94.0866 32.65 94.843 32.6514 95.5413 32.9027C96.2396 33.1539 96.8416 33.6414 97.2561 34.2912C97.6706 34.9409 97.8749 35.7174 97.8379 36.5029L96.2592 70.2434L121.745 76.0345C122.29 76.1582 122.798 76.4233 123.223 76.8063C123.648 77.1893 123.978 77.6784 124.184 78.2303C124.39 78.7822 124.465 79.3799 124.402 79.9704C124.339 80.5609 124.141 81.126 123.825 81.6157L123.825 81.6152Z"
      fill="white" />
    <path
      d="M82.516 194C81.4669 194.001 80.4278 193.781 79.4586 193.351C78.4893 192.92 77.6089 192.289 76.868 191.493L39.5961 151.559C38.105 149.953 37.2692 147.779 37.272 145.513C37.2748 143.247 38.116 141.075 39.6111 139.473C41.1062 137.871 43.1333 136.969 45.2477 136.966C47.3622 136.963 49.3916 137.859 50.8908 139.456L82.516 173.339L151.412 99.5197C152.914 97.9364 154.939 97.0531 157.046 97.0623C159.153 97.0715 161.171 97.9724 162.661 99.5688C164.151 101.165 164.991 103.328 165 105.585C165.009 107.843 164.184 110.013 162.707 111.622L88.1627 191.494C87.422 192.289 86.5418 192.92 85.5727 193.351C84.6037 193.781 83.5649 194.001 82.516 194Z"
      fill="white" />
    <path
      d="M82.484 194C83.5331 194.001 84.5722 193.781 85.5415 193.351C86.5108 192.92 87.3911 192.289 88.132 191.493L125.404 151.559C126.895 149.953 127.731 147.779 127.728 145.513C127.725 143.247 126.884 141.075 125.389 139.473C123.894 137.871 121.867 136.969 119.752 136.966C117.638 136.963 115.608 137.859 114.109 139.456L82.484 173.339L13.5882 99.5197C12.0863 97.9364 10.0613 97.0531 7.9543 97.0623C5.84735 97.0715 3.82914 97.9724 2.33928 99.5688C0.849424 101.165 0.00863875 103.328 5.94207e-05 105.585C-0.00851991 107.843 0.81581 110.013 2.29348 111.622L76.8373 191.494C77.5781 192.289 78.4583 192.92 79.4273 193.351C80.3963 193.781 81.4351 194.001 82.484 194Z"
      fill="white" fill-opacity="0.5" />
    <path
      d="M264.992 144.395C266.052 137.457 262.27 132.302 253.646 128.93L247.793 126.762C236.905 122.956 229.173 118.451 224.596 113.248C220.019 108.045 217.947 101.999 218.381 95.1094C218.766 89.1354 220.79 83.8841 224.451 79.3555C228.161 74.7786 233.027 71.2617 239.049 68.8047C245.071 66.3477 251.479 65.1914 258.271 65.3359C264.824 65.4805 270.653 66.9258 275.76 69.6719C280.867 72.3698 284.769 76.1517 287.467 81.0176C290.165 85.8353 291.417 91.3516 291.225 97.5664L273.447 97.4941C273.785 92.002 272.556 87.7383 269.762 84.7031C267.016 81.668 262.848 80.0781 257.26 79.9336C251.623 79.8372 246.854 81.1621 242.951 83.9082C239.097 86.6543 236.833 90.3639 236.158 95.0371C235.195 101.156 239.29 105.973 248.443 109.49L253.863 111.441C264.896 115.392 272.604 120.041 276.988 125.389C281.372 130.688 283.299 136.975 282.77 144.25C282.288 150.176 280.337 155.355 276.916 159.787C273.495 164.171 268.75 167.568 262.68 169.977C256.658 172.385 250.009 173.542 242.734 173.445C235.845 173.397 229.582 171.952 223.945 169.109C218.357 166.267 214.069 162.34 211.082 157.33C208.095 152.271 206.722 146.538 206.963 140.131L224.812 140.203C224.427 146.177 225.896 150.778 229.221 154.006C232.545 157.234 237.314 158.896 243.529 158.992C249.311 159.089 254.128 157.86 257.982 155.307C261.885 152.753 264.221 149.116 264.992 144.395ZM296.717 132.615C297.536 124.955 299.776 117.993 303.438 111.73C307.147 105.467 311.893 100.626 317.674 97.2051C323.455 93.7845 329.863 92.1706 336.896 92.3633C343.593 92.4596 349.374 94.2422 354.24 97.7109C359.106 101.18 362.647 105.925 364.863 111.947C367.128 117.969 367.923 124.666 367.248 132.037C366.477 140.324 364.213 147.646 360.455 154.006C356.745 160.365 351.976 165.255 346.146 168.676C340.365 172.048 333.934 173.638 326.852 173.445C320.203 173.349 314.446 171.59 309.58 168.17C304.762 164.701 301.221 159.98 298.957 154.006C296.693 147.984 295.874 141.359 296.5 134.133L296.717 132.615ZM313.555 142.516C313.796 147.574 315.12 151.645 317.529 154.729C319.986 157.764 323.383 159.354 327.719 159.498C333.596 159.643 338.51 157.378 342.461 152.705C346.46 148.032 348.965 141.648 349.977 133.555L350.41 126.473C350.41 120.306 349.182 115.464 346.725 111.947C344.268 108.43 340.702 106.576 336.029 106.383C328.706 106.19 322.925 109.779 318.686 117.15C316.132 121.631 314.518 126.786 313.844 132.615C313.458 136.662 313.362 139.962 313.555 142.516ZM423.471 164.268C417.545 170.579 410.126 173.638 401.213 173.445C396.154 173.349 391.939 172.096 388.566 169.688C385.242 167.279 382.857 163.93 381.412 159.643C380.015 155.307 379.605 150.224 380.184 144.395L388.639 93.8086H405.766L397.238 144.611C397.046 146.394 397.021 148.128 397.166 149.814C397.648 155.788 400.659 158.896 406.199 159.137C413.763 159.426 419.882 156.391 424.555 150.031L434.383 93.8086H451.51L437.996 172H421.953L423.471 164.268ZM485.041 93.7363L483.307 102.914C490.003 95.6875 497.736 92.1706 506.504 92.3633C513.827 92.5078 519.247 95.1335 522.764 100.24C526.281 105.299 527.581 112.381 526.666 121.486L518.211 172H501.084L509.611 121.27C509.852 119.198 509.876 117.271 509.684 115.488C509.057 109.755 505.637 106.816 499.422 106.672C492.918 106.576 487.209 109.779 482.295 116.283L472.539 172H455.412L468.926 93.8086L485.041 93.7363ZM540.035 132.832C540.999 124.786 543.167 117.56 546.539 111.152C549.911 104.745 554.079 99.9753 559.041 96.8438C564.003 93.6641 569.52 92.1465 575.59 92.291C583.539 92.4837 589.754 95.4466 594.234 101.18L601.75 61H618.949L599.654 172H584.334L585.49 163.906C579.42 170.507 572.29 173.71 564.1 173.518C556.825 173.421 550.995 170.627 546.611 165.135C542.275 159.594 539.939 152.247 539.602 143.094C539.457 140.107 539.529 137.192 539.818 134.35L540.035 132.832ZM556.656 139.553C556.319 145.527 557.234 150.272 559.402 153.789C561.618 157.306 564.895 159.113 569.23 159.209C575.831 159.402 581.54 156.198 586.357 149.598L592.211 115.994C589.947 109.972 585.562 106.865 579.059 106.672C572.507 106.479 567.231 109.37 563.232 115.344C559.234 121.318 557.042 129.387 556.656 139.553Z"
      fill="#FEFEFE" />
  </g>
</svg>